<?xml version="1.0" standalone="no"?><!DOCTYPE svg PUBLIC "-//W3C//DTD SVG 1.1//EN" "http://www.w3.org/Graphics/SVG/1.1/DTD/svg11.dtd"><svg t="1626675030420" class="icon" viewBox="0 0 1024 1024" version="1.1" xmlns="http://www.w3.org/2000/svg" p-id="1450" xmlns:xlink="http://www.w3.org/1999/xlink" width="200" height="200"><defs><style type="text/css"></style></defs><path d="M769.532634 768.66245L170.495255 768.00112A43.32781 43.32781 0 0 1 128.25544 720.00133V640.00168H42.495815A43.32781 43.32781 0 0 1 0.256 592.00189V48.00427A43.32781 43.32781 0 0 1 42.495815 0.00448h799.9965A53.3331 53.3331 0 0 1 896.25208 48.00427V128.00392h74.239675A53.3331 53.3331 0 0 1 1024.25152 176.00371V1024zM810.91912 85.33744H85.58896v469.33128h42.66648V176.00371A43.32781 43.32781 0 0 1 170.495255 128.00392H810.91912V85.33744z m127.99944 127.99944H213.5884v469.33128h586.6641l138.66606 138.66606V213.33688zM341.58784 469.33576h469.33128v42.66648H341.58784v-42.66648z m0-85.33296h469.33128v42.66648H341.58784v-42.66648z" p-id="1451"></path></svg>