<?xml version="1.0" standalone="no"?><!DOCTYPE svg PUBLIC "-//W3C//DTD SVG 1.1//EN" "http://www.w3.org/Graphics/SVG/1.1/DTD/svg11.dtd"><svg t="1626938216253" class="icon" viewBox="0 0 1024 1024" version="1.1" xmlns="http://www.w3.org/2000/svg" p-id="3998" xmlns:xlink="http://www.w3.org/1999/xlink" width="200" height="200"><defs><style type="text/css">@font-face { font-family: feedback-iconfont; src: url("//at.alicdn.com/t/font_1031158_1uhr8ri0pk5.eot?#iefix") format("embedded-opentype"), url("//at.alicdn.com/t/font_1031158_1uhr8ri0pk5.woff2") format("woff2"), url("//at.alicdn.com/t/font_1031158_1uhr8ri0pk5.woff") format("woff"), url("//at.alicdn.com/t/font_1031158_1uhr8ri0pk5.ttf") format("truetype"), url("//at.alicdn.com/t/font_1031158_1uhr8ri0pk5.svg#iconfont") format("svg"); }
</style></defs><path d="M256 512a51.2 51.2 0 0 0 36.181333-15.018667 51.2 51.2 0 0 0 0-72.362666L174.762667 307.2H802.133333a51.2 51.2 0 0 0 0-102.4H174.762667l117.418666-117.418667A51.2 51.2 0 0 0 219.818667 15.018667l-204.8 204.8a51.2 51.2 0 0 0 0 72.362666l204.8 204.8A51.2 51.2 0 0 0 256 512zM1008.981333 731.818667l-204.8-204.8a51.2 51.2 0 0 0-72.362666 72.362666L849.237333 716.8H221.866667a51.2 51.2 0 0 0 0 102.4h627.370666l-117.418666 117.418667a51.2 51.2 0 0 0 0 72.362666 51.2 51.2 0 0 0 72.362666 0l204.8-204.8a51.2 51.2 0 0 0 0-72.362666z" p-id="3999"></path></svg>