<?xml version="1.0" standalone="no"?><!DOCTYPE svg PUBLIC "-//W3C//DTD SVG 1.1//EN" "http://www.w3.org/Graphics/SVG/1.1/DTD/svg11.dtd"><svg t="1626938158418" class="icon" viewBox="0 0 1029 1024" version="1.1" xmlns="http://www.w3.org/2000/svg" p-id="3186" xmlns:xlink="http://www.w3.org/1999/xlink" width="200.9765625" height="200"><defs><style type="text/css">@font-face { font-family: feedback-iconfont; src: url("//at.alicdn.com/t/font_1031158_1uhr8ri0pk5.eot?#iefix") format("embedded-opentype"), url("//at.alicdn.com/t/font_1031158_1uhr8ri0pk5.woff2") format("woff2"), url("//at.alicdn.com/t/font_1031158_1uhr8ri0pk5.woff") format("woff"), url("//at.alicdn.com/t/font_1031158_1uhr8ri0pk5.ttf") format("truetype"), url("//at.alicdn.com/t/font_1031158_1uhr8ri0pk5.svg#iconfont") format("svg"); }
</style></defs><path d="M197.11655 627.189024a17.919686 17.919686 0 0 1-17.919686 15.359731 17.919686 17.919686 0 0 1-17.919686-15.359731V255.99552A17.919686 17.919686 0 0 1 179.196864 230.395968a17.919686 17.919686 0 0 1 15.359731 25.599552z"  p-id="3187"></path><path d="M696.307815 609.269338a17.919686 17.919686 0 0 1 17.919686 17.919686 17.919686 17.919686 0 0 1-17.919686 15.359731H179.196864a17.919686 17.919686 0 0 1-17.919686-15.359731 17.919686 17.919686 0 0 1 17.919686-17.919686z"  p-id="3188"></path><path d="M524.790816 450.552115h-33.279417a17.919686 17.919686 0 0 0-15.359732 17.919687v174.076953h66.558836v-174.076953a17.919686 17.919686 0 0 0-17.919687-17.919687zM409.592832 391.673146h-33.279417a17.919686 17.919686 0 0 0-15.359732 17.919686v232.955923h66.558836V409.592832a17.919686 17.919686 0 0 0-17.919687-17.919686zM639.9888 350.713863h-30.719462a20.479642 20.479642 0 0 0-17.919687 17.919686v273.915206h66.558836V368.633549a20.479642 20.479642 0 0 0-17.919687-17.919686zM294.394848 511.99104H255.99552a20.479642 20.479642 0 0 0 0 17.919687v112.638028h69.11879v-112.638028A17.919686 17.919686 0 0 0 294.394848 511.99104zM246.011695 425.464554l116.477961-133.11767 26.87953 23.807583-116.477962 132.861675z"  p-id="3189"></path><path d="M511.99104 424.952563l-151.037357-130.557715 25.599552-28.159507 148.477402 133.11767-23.039597 25.599552z"  p-id="3190"></path><path d="M485.367506 401.400975l127.99776-146.429437 27.135525 23.551588-127.99776 146.429437z"  p-id="3191"></path><path d="M645.108711 238.075834v23.039596a74.238701 74.238701 0 0 1 0 23.039597v23.039597l-17.919687-15.359731-20.479641-15.359731-17.919687-15.359732V248.315654h48.639149z"  p-id="3192"></path><path d="M988.142708 985.582752a135.677626 135.677626 0 0 1-94.718343 38.399328 130.557715 130.557715 0 0 1-94.718342-38.399328l-161.277178-158.717222A437.752339 437.752339 0 0 1 0 437.752339a437.752339 437.752339 0 0 1 875.504679 0 442.87225 442.87225 0 0 1-48.639149 199.676506l161.277178 158.717222a130.557715 130.557715 0 0 1 0 189.436685zM437.752339 819.185664A381.433325 381.433325 0 1 0 56.319014 437.752339 381.433325 381.433325 0 0 0 437.752339 819.185664z"  p-id="3193"></path></svg>
