<?xml version="1.0" standalone="no"?><!DOCTYPE svg PUBLIC "-//W3C//DTD SVG 1.1//EN" "http://www.w3.org/Graphics/SVG/1.1/DTD/svg11.dtd"><svg t="1626938096203" class="icon" viewBox="0 0 1024 1024" version="1.1" xmlns="http://www.w3.org/2000/svg" p-id="3042" xmlns:xlink="http://www.w3.org/1999/xlink" width="200" height="200"><defs><style type="text/css">@font-face { font-family: feedback-iconfont; src: url("//at.alicdn.com/t/font_1031158_1uhr8ri0pk5.eot?#iefix") format("embedded-opentype"), url("//at.alicdn.com/t/font_1031158_1uhr8ri0pk5.woff2") format("woff2"), url("//at.alicdn.com/t/font_1031158_1uhr8ri0pk5.woff") format("woff"), url("//at.alicdn.com/t/font_1031158_1uhr8ri0pk5.ttf") format("truetype"), url("//at.alicdn.com/t/font_1031158_1uhr8ri0pk5.svg#iconfont") format("svg"); }
</style></defs><path d="M779 118c35.346 0 64 28.654 64 64v296h-71V190H650v-62H320v62H193v698h289.5v72H185c-35.346 0-64-28.654-64-64V182c0-35.346 28.654-64 64-64h594z" p-id="3043"></path><path d="M482 924m-36 0a36 36 0 1 0 72 0 36 36 0 1 0-72 0Z" p-id="3044"></path><path d="M320 64h330c35.346 0 64 28.654 64 64v99c0 35.346-28.654 64-64 64H320c-35.346 0-64-28.654-64-64v-99c0-35.346 28.654-64 64-64z m0 64v99h330v-99H320z" p-id="3045"></path><path d="M286 384m28 0l336 0q28 0 28 28l0 0q0 28-28 28l-336 0q-28 0-28-28l0 0q0-28 28-28Z" p-id="3046"></path><path d="M286 548m28 0l220 0q28 0 28 28l0 0q0 28-28 28l-220 0q-28 0-28-28l0 0q0-28 28-28Z" p-id="3047"></path><path d="M286 712m28 0l140 0q28 0 28 28l0 0q0 28-28 28l-140 0q-28 0-28-28l0 0q0-28 28-28Z" p-id="3048"></path><path d="M807.5 478.5m-35.5 0a35.5 35.5 0 1 0 71 0 35.5 35.5 0 1 0-71 0Z" p-id="3049"></path><path d="M772.5 711c42.25 0 76.5-34.25 76.5-76.5S814.75 558 772.5 558 696 592.25 696 634.5s34.25 76.5 76.5 76.5z m0-56c-11.322 0-20.5-9.178-20.5-20.5s9.178-20.5 20.5-20.5 20.5 9.178 20.5 20.5-9.178 20.5-20.5 20.5z" p-id="3050"></path><path d="M752.006 698.476l1 42c0.263 11.043 9.427 19.781 20.47 19.518 11.043-0.263 19.781-9.427 19.518-20.47l-1-42c-0.263-11.043-9.427-19.781-20.47-19.518-11.043 0.263-19.781 9.427-19.518 20.47zM624.875 755.08l0.25 62.75c0.044 11.045 9.034 19.964 20.08 19.92 11.045-0.044 19.964-9.034 19.92-20.08l-0.25-62.75c-0.044-11.045-9.034-19.964-20.08-19.92-11.045 0.044-19.964 9.034-19.92 20.08zM863.875 755.08l0.25 62.75c0.044 11.045 9.034 19.964 20.08 19.92 11.045-0.044 19.964-9.034 19.92-20.08l-0.25-62.75c-0.044-11.045-9.034-19.964-20.08-19.92-11.045 0.044-19.964 9.034-19.92 20.08z" p-id="3051"></path><path d="M884 735H645c-11.046 0-20 8.954-20 20s8.954 20 20 20h239c11.046 0 20-8.954 20-20s-8.954-20-20-20zM644.5 960c42.25 0 76.5-34.25 76.5-76.5S686.75 807 644.5 807 568 841.25 568 883.5s34.25 76.5 76.5 76.5z m0-56c-11.322 0-20.5-9.178-20.5-20.5s9.178-20.5 20.5-20.5 20.5 9.178 20.5 20.5-9.178 20.5-20.5 20.5zM883.5 960c42.25 0 76.5-34.25 76.5-76.5S925.75 807 883.5 807 807 841.25 807 883.5s34.25 76.5 76.5 76.5z m0-56c-11.322 0-20.5-9.178-20.5-20.5s9.178-20.5 20.5-20.5 20.5 9.178 20.5 20.5-9.178 20.5-20.5 20.5z" p-id="3052"></path></svg>