<?xml version="1.0" standalone="no"?><!DOCTYPE svg PUBLIC "-//W3C//DTD SVG 1.1//EN" "http://www.w3.org/Graphics/SVG/1.1/DTD/svg11.dtd"><svg t="1626937962634" class="icon" viewBox="0 0 1024 1024" version="1.1" xmlns="http://www.w3.org/2000/svg" p-id="2711" xmlns:xlink="http://www.w3.org/1999/xlink" width="200" height="200"><defs><style type="text/css">@font-face { font-family: feedback-iconfont; src: url("//at.alicdn.com/t/font_1031158_1uhr8ri0pk5.eot?#iefix") format("embedded-opentype"), url("//at.alicdn.com/t/font_1031158_1uhr8ri0pk5.woff2") format("woff2"), url("//at.alicdn.com/t/font_1031158_1uhr8ri0pk5.woff") format("woff"), url("//at.alicdn.com/t/font_1031158_1uhr8ri0pk5.ttf") format("truetype"), url("//at.alicdn.com/t/font_1031158_1uhr8ri0pk5.svg#iconfont") format("svg"); }
</style></defs><path d="M860 400H589.6v89.6h-58.4l-144-95.2V336h29.6c63.2 0 114.4-51.2 114.4-114.4S480 107.2 416.8 107.2h-104c-63.2 0-114.4 51.2-114.4 114.4S249.6 336 312.8 336h29.6v58.4l-178.4 118.4L342.4 632v56H312.8c-63.2 0-114.4 51.2-114.4 114.4s51.2 114.4 114.4 114.4h104c54.4 0 100-38.4 111.2-89.6h218.4V624h112.8l0.8-224z m-158.4 383.2H529.6c-9.6-53.6-56-95.2-112.8-95.2h-29.6v-56l146.4-97.6h56V624h112v159.2z" p-id="2712"></path></svg>